<svg xmlns="http://www.w3.org/2000/svg" width="64.26" height="64.26" viewBox="0 0 64.26 64.26"><g id="Layer_2" data-name="Layer 2"><g id="Layer_1-2" data-name="Layer 1"><g id="ns_google_map"><rect width="64.26" height="64.26" style="fill:#ff4a4a"/><path d="M22.63,32.28H20.92a1.13,1.13,0,0,0-1,.68L15.16,44,26.4,38.24A51.66,51.66,0,0,1,22.63,32.28Z" style="fill:#fff"/><path d="M44.37,33a1.13,1.13,0,0,0-1-.68H41.63a59.75,59.75,0,0,1-7,10,3.38,3.38,0,0,1-5.08,0c-.13-.16-.85-1-1.83-2.26l-2,1,7.66,7.64,14.52-7.52Z" style="fill:#fff"/><path d="M13.77,47.2l-.61,1.43a1.12,1.12,0,0,0,1,1.55H30.65a4.62,4.62,0,0,1,.66-.35l-7.68-7.66Z" style="fill:#fff"/><path d="M51.1,48.63l-2.3-5.35-13.32,6.9H50.07A1.12,1.12,0,0,0,51.1,48.63Z" style="fill:#fff"/><path d="M33,40.78c.37-.44,9.24-10.69,9.24-17.74C42.22,8.5,22,8.32,22,23c0,7.05,8.87,17.3,9.24,17.74A1.14,1.14,0,0,0,33,40.78ZM28.77,22.14a3.36,3.36,0,1,1,3.36,3.36A3.36,3.36,0,0,1,28.77,22.14Z" style="fill:#fff"/></g></g></g></svg>